<?xml version="1.0" standalone="no"?>
<!DOCTYPE svg PUBLIC "-//W3C//DTD SVG 20010904//EN"
 "http://www.w3.org/TR/2001/REC-SVG-20010904/DTD/svg10.dtd">
<svg version="1.0" xmlns="http://www.w3.org/2000/svg"
 width="720.000000pt" height="720.000000pt" viewBox="0 0 720.000000 720.000000"
 preserveAspectRatio="xMidYMid meet">
<metadata>
Created by potrace 1.14, written by Peter Selinger 2001-2017
</metadata>
<g transform="translate(0.000000,720.000000) scale(0.100000,-0.100000)"
fill="#000000" stroke="none">
<path d="M3284 3999 c-34 -17 -81 -47 -104 -69 -23 -21 -54 -44 -70 -50 -16
-7 -32 -21 -35 -31 -7 -22 -21 -25 -28 -6 -3 6 -6 -15 -6 -48 -2 -76 -9 -90
-39 -69 -12 8 -22 22 -22 30 0 8 -9 14 -20 14 -10 0 -24 8 -29 19 -6 10 -22
22 -35 25 -14 3 -23 12 -21 19 3 6 -18 27 -45 45 -40 26 -60 32 -102 32 -48 0
-55 -3 -73 -30 -11 -16 -25 -30 -31 -30 -5 0 -30 -9 -53 -21 -24 -11 -45 -18
-48 -16 -9 10 -12 67 -3 67 6 0 10 6 10 13 0 7 9 20 20 30 22 18 26 37 9 37
-5 0 -7 5 -4 10 8 13 -8 13 -42 -2 -40 -17 -63 -38 -63 -58 0 -12 -11 -19 -38
-24 -34 -5 -40 -10 -50 -43 -10 -31 -9 -40 5 -55 15 -17 15 -18 0 -18 -25 0
-28 -1 -78 -21 -26 -10 -49 -16 -51 -14 -10 10 -83 -43 -86 -63 -2 -12 -10
-22 -18 -22 -8 0 -22 -17 -31 -37 -8 -21 -23 -43 -32 -50 -10 -6 -26 -30 -36
-52 -18 -40 -30 -51 -37 -31 -2 5 -12 11 -23 13 -45 9 -105 52 -105 75 0 19
-81 41 -125 35 -25 -3 -45 -9 -45 -13 0 -4 -11 -12 -25 -18 -14 -6 -25 -18
-25 -27 0 -8 -4 -15 -9 -15 -5 0 -12 -8 -15 -17 -6 -18 -49 -43 -73 -43 -7 0
-13 -4 -13 -10 0 -5 -9 -10 -21 -10 -15 0 -19 -4 -15 -16 5 -14 1 -16 -26 -10
-67 14 -105 18 -190 20 -49 0 -90 -2 -92 -7 -3 -4 -4 -3 -3 4 2 6 6 10 10 9
10 -1 68 31 87 49 11 11 12 15 2 19 -12 4 -18 42 -6 42 17 0 50 -38 49 -55 -1
-18 5 -20 62 -20 59 0 62 1 61 23 -2 21 -14 27 -48 24 -38 -4 -91 11 -86 23 3
8 -2 19 -10 25 -8 7 -14 9 -14 5 0 -4 -7 -2 -15 5 -8 7 -15 20 -15 29 0 13 2
13 9 2 5 -7 14 -10 20 -7 6 4 11 0 11 -9 0 -9 5 -13 11 -10 6 4 13 -2 16 -14
6 -25 23 -18 23 10 0 13 7 19 21 19 18 0 19 2 9 15 -9 11 -9 15 -1 15 7 0 9 5
6 10 -3 6 -13 10 -21 10 -8 0 -12 -4 -9 -10 3 -5 0 -10 -9 -10 -8 0 -16 -6
-19 -12 -2 -7 -8 -9 -13 -5 -5 5 0 15 11 24 19 13 17 14 -20 7 -81 -14 -108
-37 -102 -85 1 -13 -4 -23 -14 -24 -33 -6 -59 -17 -59 -25 0 -5 -15 -23 -34
-41 -19 -17 -40 -44 -46 -60 -7 -16 -20 -29 -30 -29 -9 0 -36 -14 -58 -30 -33
-23 -42 -37 -42 -59 0 -38 -33 -47 -76 -21 -39 25 -114 25 -112 1 4 -56 0 -61
-50 -61 -26 0 -54 -6 -62 -12 -12 -11 -12 -10 0 6 8 10 25 22 39 27 23 9 23
10 5 25 -10 9 -14 13 -9 10 6 -2 17 -1 24 3 10 6 9 12 -4 25 -17 17 -56 20
-89 7 -19 -7 -19 -8 2 -29 12 -12 22 -26 22 -31 0 -5 -32 -9 -70 -9 -45 0 -68
3 -64 10 4 6 -3 5 -15 -1 -12 -7 -27 -21 -34 -31 -6 -11 -16 -20 -22 -20 -5
-1 -28 -9 -50 -20 -22 -11 -51 -19 -63 -20 -55 0 -122 -74 -122 -133 0 -20 -7
-28 -35 -37 -19 -6 -35 -16 -35 -21 0 -5 -5 -9 -10 -9 -6 0 -19 -9 -30 -20
-11 -11 -31 -20 -45 -20 l-25 0 0 -1460 0 -1460 3600 0 3600 0 0 1349 0 1350
-47 7 c-33 5 -54 3 -72 -7 -32 -18 -72 -76 -64 -95 4 -10 -3 -14 -27 -14 -36
0 -95 -32 -110 -60 -10 -19 -26 -24 -112 -35 -32 -4 -48 -11 -48 -21 0 -21
-38 -17 -50 6 -14 27 -45 32 -110 19 -30 -5 -76 -10 -103 -9 -49 1 -107 -28
-107 -54 0 -7 -9 -21 -20 -31 -11 -10 -20 -23 -20 -29 0 -6 -15 -23 -33 -38
l-34 -26 -13 34 c-9 21 -21 34 -32 34 -10 0 -18 5 -18 10 0 6 -8 10 -18 10
-25 0 -62 41 -62 68 0 12 -4 22 -9 22 -5 0 -7 30 -5 66 3 46 0 75 -12 99 -17
37 -29 44 -89 51 -22 3 -47 14 -57 25 -9 10 -21 19 -28 19 -11 0 -68 37 -85
56 -17 19 -135 42 -135 26 0 -5 -11 -13 -25 -16 -14 -4 -25 -11 -25 -17 0 -8
-5 -7 -15 1 -12 10 -15 9 -15 -8 0 -44 -70 -57 -89 -16 -12 28 -29 30 -57 9
-19 -15 -19 -15 0 -30 19 -15 19 -15 1 -15 -15 0 -16 -3 -7 -12 7 -7 12 -26
12 -43 0 -17 6 -37 12 -43 10 -10 10 -15 -2 -22 -12 -7 -17 -3 -24 19 -5 18
-23 37 -47 50 -33 19 -42 20 -61 10 -13 -7 -36 -13 -53 -13 -29 -1 -30 0 -30
49 0 44 -3 50 -22 53 -25 4 -30 -7 -11 -26 10 -10 10 -15 -1 -21 -8 -5 -11
-15 -8 -23 3 -8 1 -21 -4 -29 -7 -11 -9 -10 -9 4 0 10 -4 15 -10 12 -5 -3 -10
0 -10 8 0 8 -6 20 -14 26 -15 13 -28 61 -15 61 4 0 10 -8 12 -17 4 -14 5 -12
6 5 1 17 -4 22 -24 22 -13 0 -29 -8 -34 -17 -14 -24 -14 -7 -1 18 6 11 7 18 3
17 -4 -1 -27 1 -50 5 -41 7 -42 8 -41 47 0 47 -23 80 -57 80 -35 0 -85 -12
-81 -19 2 -3 -15 -5 -37 -5 -39 1 -42 3 -41 30 0 16 -4 32 -10 36 -6 4 1 20
17 41 22 30 25 39 17 73 -5 21 -15 67 -22 102 -12 62 -21 76 -60 97 -16 8 -20
23 -23 94 -3 63 -8 87 -20 93 -8 5 -15 15 -15 22 0 15 -28 30 -49 27 -7 -1
-22 7 -33 18 -23 25 -84 30 -74 6 3 -8 1 -15 -3 -15 -11 0 -25 31 -22 49 6 33
-57 141 -82 141 -6 0 -19 7 -29 17 -10 9 -18 12 -18 6 0 -5 -13 -8 -30 -5 -21
3 -30 0 -30 -10 0 -7 -9 -21 -19 -30 -13 -11 -18 -24 -14 -37 6 -25 -5 -27
-33 -6 -10 8 -26 15 -36 15 -9 0 -28 14 -41 30 -14 17 -32 30 -40 30 -8 0 -17
7 -21 15 -3 8 -18 15 -33 15 -20 0 -44 14 -78 46 -36 33 -55 44 -71 40 -16 -4
-24 1 -33 20 -6 14 -16 22 -21 19 -16 -10 -12 -45 5 -45 30 0 14 -20 -17 -22
-18 -1 -41 -2 -50 -2 -10 -1 -18 -6 -19 -11 -1 -18 -31 -28 -41 -14 -7 11 -11
11 -15 2 -2 -7 -10 -13 -16 -13 -6 0 -19 -7 -29 -17 -10 -9 -18 -11 -18 -5 0
6 -8 13 -17 15 -17 4 -17 5 0 6 10 1 17 9 17 21 0 15 -7 20 -25 20 -18 0 -25
6 -26 20 -3 39 -5 45 -17 43 -7 -2 -12 8 -12 22 0 18 -5 25 -20 25 -11 0 -20
6 -20 14 0 16 -13 22 -88 42 -78 21 -120 17 -188 -17z m-2039 -419 c-7 -23 4
-26 24 -7 11 10 12 8 3 -9 -6 -12 -9 -23 -7 -26 2 -2 -5 -4 -15 -4 -16 0 -20
7 -20 33 0 18 5 33 11 33 6 0 8 -9 4 -20z m-202 -297 c-3 -10 -10 -24 -16 -30
-5 -7 -7 -22 -4 -34 6 -24 -17 -37 -37 -20 -31 26 5 84 61 100 1 1 0 -7 -4
-16z m-263 -13 c0 -5 -4 -10 -10 -10 -5 0 -10 5 -10 10 0 6 5 10 10 10 6 0 10
-4 10 -10z m-140 -209 c0 -5 -7 -12 -16 -15 -24 -9 -28 -7 -14 9 14 17 30 20
30 6z m4090 -166 c7 -18 17 -25 37 -25 18 -1 35 -10 46 -26 25 -34 15 -41 -21
-15 -16 11 -32 17 -36 13 -4 -4 -12 1 -17 11 -6 9 -16 17 -23 17 -8 0 -12 9
-11 23 4 37 12 37 25 2z m-297 -26 c6 -24 -2 -24 -19 -1 -17 22 -17 33 0 26 8
-3 16 -14 19 -25z m857 -239 c0 -5 -5 -10 -11 -10 -5 0 -7 5 -4 10 3 6 8 10
11 10 2 0 4 -4 4 -10z m924 -299 c-6 -6 -24 19 -24 34 1 6 7 1 15 -9 8 -11 12
-22 9 -25z m-1090 -17 c5 -14 4 -15 -9 -4 -17 14 -19 20 -6 20 5 0 12 -7 15
-16z m376 -64 c0 -10 -9 -13 -42 -13 -10 0 -18 -6 -18 -13 0 -8 -4 -14 -10
-14 -15 0 -12 11 7 32 17 19 63 25 63 8z"/>
<path d="M3701 3964 c0 -11 3 -14 6 -6 3 7 2 16 -1 19 -3 4 -6 -2 -5 -13z"/>
<path d="M2675 3961 c-3 -5 -1 -12 5 -16 12 -7 30 2 30 16 0 12 -27 12 -35 0z"/>
<path d="M5188 2813 c6 -2 18 -2 25 0 6 3 1 5 -13 5 -14 0 -19 -2 -12 -5z"/>
<path d="M6182 2445 c0 -16 2 -22 5 -12 2 9 2 23 0 30 -3 6 -5 -1 -5 -18z"/>
</g>
</svg>
